<svg width="305" height="289" viewBox="0 0 305 289" fill="none" xmlns="http://www.w3.org/2000/svg">
<g filter="url(#filter0_i_1_93)">
<path d="M97.2581 273.276C73.0069 274.223 83.92 261.039 92.4079 254.328C83.92 255.512 79.0697 118.137 184.562 119.321C268.956 120.269 290.055 205.773 290.055 248.406C293.289 251.564 300.483 258.828 303.393 262.618C306.303 266.407 304.606 270.513 303.393 272.092H294.905C292.965 272.092 288.438 269.723 286.417 268.539H276.717C271.867 267.591 269.037 269.723 268.229 270.907V275.644C267.259 277.539 261.358 279.592 258.528 280.382H247.615C241.795 280.382 234.681 276.434 231.852 274.46H219.727C214.472 277.224 202.993 281.092 199.113 274.46C195.233 267.828 188.604 266.96 185.775 267.355C176.074 270.907 177.287 270.907 173.649 280.382C170.012 289.856 160.311 292.224 155.461 283.934C151.581 277.302 147.377 275.644 145.76 275.644C143.74 275.25 138 274.934 131.21 276.829C124.419 278.724 117.063 277.618 114.234 276.829C107.444 270.197 100.087 271.697 97.2581 273.276Z" fill="#FDB783"/>
</g>
<path d="M102.108 267.895C99.1978 263.158 94.4284 265.921 92.4074 267.895C87.5572 268.843 90.3865 265.132 92.4074 263.158C96.0451 261.974 103.805 260.553 105.746 264.342C107.686 268.132 114.638 266.711 117.871 265.527C118.275 263.553 121.994 260.079 133.634 261.974C148.185 264.342 140.91 272.632 133.634 267.895C127.814 264.106 122.317 267.895 120.296 270.264C115.446 271.448 105.018 272.632 102.108 267.895Z" fill="#FFD1AE" fill-opacity="0.45"/>
<path d="M189.159 238.925C181.399 238.925 178.65 228.661 178.246 223.53H189.159H200.072C199.668 228.661 196.92 238.925 189.159 238.925Z" fill="#FB9EAD"/>
<path d="M152.782 195.107L169.758 206.95L152.782 218.793M225.536 195.107L208.56 206.95L225.536 218.793M170.971 223.53H178.246M206.135 223.53H200.072M178.246 223.53C178.65 228.661 181.399 238.925 189.159 238.925C196.92 238.925 199.668 228.661 200.072 223.53M178.246 223.53H189.159M200.072 223.53H189.159M189.159 223.53V231.819" stroke="#FF6D00" stroke-width="2"/>
<path d="M103.321 231.827C102.108 239.327 102.351 249.828 113.021 231.827M233.065 244.854C235.086 241.301 239.855 235.853 242.765 242.485C245.675 249.117 249.636 244.459 251.253 241.301C250.849 236.169 251.253 228.274 256.103 237.748C260.954 247.222 263.783 236.169 264.591 229.458M230.64 185.64C230.64 182.877 231.852 179.008 236.702 185.64C237.915 186.825 240.583 187.535 241.553 180.903C242.523 174.271 245.999 178.929 247.615 182.087" stroke="#FF872F"/>
<path d="M158.126 152.946C136.784 157.683 127.407 192.816 125.386 209.791C123.77 212.949 119.809 216.896 116.899 207.422C113.261 195.579 130.237 150.577 152.063 148.209C169.524 146.314 163.38 150.577 158.126 152.946Z" fill="#FFD1AE" fill-opacity="0.45"/>
<path d="M129.744 237.741C129.744 241.011 127.029 241.294 123.681 241.294C120.333 241.294 116.406 241.011 116.406 237.741C116.406 234.471 120.333 233.004 123.681 233.004C127.029 233.004 129.744 234.471 129.744 237.741Z" fill="#FFD1AE" fill-opacity="0.45"/>
<path d="M8.48793 5.62458L1.63379 11.0574L10.913 36.4155L51.73 33.5932L41.227 17.4672L35.1642 23.3886L31.5266 12.7302L27.8889 18.6515L24.0118 20.9235L20.6135 11.0574L8.48792 18.6515L8.48793 5.62458Z" fill="#DEB039"/>
<g filter="url(#filter1_i_1_93)">
<path d="M70.3284 200.424C69.4175 200.281 68.4901 199.424 67.9033 198.66C40.1087 160.656 12.3665 58.4096 0 5.62457L13.3382 18.6515L18.1884 17.4672L30.314 31.6784L35.1642 25.7571L43.6521 34.047L47.0457 17.4672C96.727 48.1392 166.162 101.972 170.971 105.103C173.785 106.935 175.201 108.288 175.821 109.241C183.096 109.84 196.435 118.13 197.647 120.498C185.926 121.288 152.782 129.025 128.531 153.658C104.28 178.291 89.3252 217.608 88.5168 234.188C75.1787 231.819 71.9452 209.31 70.3284 200.424Z" fill="#FFDD63"/>
</g>
<path d="M80.029 129.973C80.029 138.475 73.5144 145.368 65.4783 145.368C57.4422 145.368 55.7778 138.475 55.7778 129.973C55.7778 121.47 57.4422 114.577 65.4783 114.577C73.5144 114.577 80.029 121.47 80.029 129.973Z" fill="#FFF1D3" fill-opacity="0.45"/>
<path d="M80.0289 159.579C80.0289 163.504 74.8894 170.238 71.541 170.238C68.1926 170.238 61.8405 159.579 65.4782 159.579C65.4782 155.655 70.6177 152.474 73.9661 152.474C77.3145 152.474 80.0289 155.655 80.0289 159.579Z" fill="#FFF1D3" fill-opacity="0.45"/>
<path d="M94.5796 189.186C94.5796 191.148 93.4938 192.739 92.1544 192.739C90.8151 192.739 87.3042 189.964 87.3042 188.002C87.3042 186.039 90.8151 185.633 92.1544 185.633C93.4938 185.633 94.5796 187.224 94.5796 189.186Z" fill="#FFF1D3" fill-opacity="0.45"/>
<path d="M85.5396 207.218C87.3288 209.982 87.1851 213.207 85.2185 214.421C83.252 215.636 83.0306 213.267 81.2414 210.503C79.4523 207.738 79.2749 205.795 81.2414 204.581C83.208 203.367 83.7504 204.454 85.5396 207.218Z" fill="#FFF1D3" fill-opacity="0.45"/>
<defs>
<filter id="filter0_i_1_93" x="78.454" y="118.314" width="226.546" height="170.689" filterUnits="userSpaceOnUse" color-interpolation-filters="sRGB">
<feFlood flood-opacity="0" result="BackgroundImageFix"/>
<feBlend mode="normal" in="SourceGraphic" in2="BackgroundImageFix" result="shape"/>
<feColorMatrix in="SourceAlpha" type="matrix" values="0 0 0 0 0 0 0 0 0 0 0 0 0 0 0 0 0 0 127 0" result="hardAlpha"/>
<feOffset dx="-8" dy="-1"/>
<feGaussianBlur stdDeviation="2"/>
<feComposite in2="hardAlpha" operator="arithmetic" k2="-1" k3="1"/>
<feColorMatrix type="matrix" values="0 0 0 0 1 0 0 0 0 0.59836 0 0 0 0 0.3 0 0 0 0.45 0"/>
<feBlend mode="normal" in2="shape" result="effect1_innerShadow_1_93"/>
</filter>
<filter id="filter1_i_1_93" x="0" y="5.62457" width="197.647" height="232.563" filterUnits="userSpaceOnUse" color-interpolation-filters="sRGB">
<feFlood flood-opacity="0" result="BackgroundImageFix"/>
<feBlend mode="normal" in="SourceGraphic" in2="BackgroundImageFix" result="shape"/>
<feColorMatrix in="SourceAlpha" type="matrix" values="0 0 0 0 0 0 0 0 0 0 0 0 0 0 0 0 0 0 127 0" result="hardAlpha"/>
<feOffset dy="10"/>
<feGaussianBlur stdDeviation="2"/>
<feComposite in2="hardAlpha" operator="arithmetic" k2="-1" k3="1"/>
<feColorMatrix type="matrix" values="0 0 0 0 0.976471 0 0 0 0 0.776471 0 0 0 0 0.266667 0 0 0 0.75 0"/>
<feBlend mode="normal" in2="shape" result="effect1_innerShadow_1_93"/>
</filter>
</defs>
</svg>
