<svg width="230" height="231" viewBox="0 0 230 231" fill="none" xmlns="http://www.w3.org/2000/svg">
<path d="M0.0628662 161.238V41.2064C0.0628673 5.64162 2.28563 7.86443 43.4074 0.0846252H202.338C208.636 0.0846252 222.565 3.19655 227.9 15.6442C233.235 28.0919 227.159 123.821 223.454 170.129C225.233 186.133 215.304 190.875 210.117 191.245L37.8505 189.023L20.0681 185.688C5.84215 183.91 0.8038 168.647 0.0628662 161.238Z" fill="#8BFFFE"/>
<path d="M122.317 101.533C124.573 107.169 135.289 115.06 142.057 101.533C144.877 107.169 154.69 115.06 160.105 101.533M84.5293 84.623C89.6052 77.8592 102.803 68.3898 114.985 84.623M169.128 84.623C174.204 77.8592 187.063 68.3898 197.892 84.623" stroke="#195577" stroke-width="2"/>
<ellipse cx="100.089" cy="104.556" rx="11.114" ry="4.4456" fill="#FDD5E5"/>
<ellipse cx="182.333" cy="104.556" rx="11.114" ry="4.4456" fill="#FDD5E5"/>
<path d="M54.164 158.871C54.5571 143.657 61.5712 150.381 65.0292 155.645C67.1101 158.058 73.0242 164.957 80.0326 173.244C87.0409 181.531 82.0848 183.473 78.7308 183.408L63.1346 183.719C59.9806 181.776 53.7709 174.086 54.164 158.871Z" fill="#45A7CA" fill-opacity="0.2"/>
<path d="M87.78 172.535C81.6571 164.167 87.2397 166.632 90.7964 168.911C100.218 174.299 99.7569 177.391 98.3488 178.264C97.3771 179.841 93.9029 180.903 87.78 172.535Z" fill="#45A7CA" fill-opacity="0.2"/>
<path d="M70.0812 71.2142C66.5247 72.9925 58.2263 62.323 54.5216 56.766C57.189 94.1091 60.0786 102.704 61.19 102.333C65.6356 100.555 68.9698 80.8464 70.0812 71.2142Z" fill="#ECFDFF" fill-opacity="0.35"/>
<path d="M210.118 91.2194C202.116 117.893 192.706 122.339 189.001 121.227C186.334 151.457 196.781 137.528 202.338 126.784C203.227 165.016 207.895 176.056 210.118 176.797C214.563 175.908 217.897 165.313 219.009 160.126C210.118 156.57 209.377 112.707 210.118 91.2194Z" fill="#ECFDFF" fill-opacity="0.35"/>
<path d="M173.441 161.238C170.774 166.572 166.403 164.942 164.55 163.46C166.328 185.688 168.996 197.914 170.107 201.248L171.219 202.359C174.775 202.359 178.628 182.354 180.11 172.352C179.221 181.243 182.703 191.616 184.555 195.691C189.001 194.58 193.447 172.352 192.335 174.574C191.446 176.353 186.778 169.388 184.555 165.683C181.888 169.24 176.035 164.201 173.441 161.238Z" fill="#ECFDFF" fill-opacity="0.35"/>
<path d="M175.664 20.0898C172.997 21.8681 166.403 17.867 163.439 15.6442C163.809 20.4603 165.439 30.3147 168.996 31.2038C172.552 32.0929 174.923 24.165 175.664 20.0898Z" fill="#ECFDFF" fill-opacity="0.35"/>
<path d="M42.2956 2.68369L42.296 1.32125C42.2961 0.681505 41.7038 0.216273 41.0793 0.355047L12.2884 6.75273C3.39718 8.97553 0.0630278 17.8667 0.0630311 31.2035L0.0630295 160.126C0.0630311 169.017 5.61999 180.131 18.9568 184.577L42.2962 189.022C43.3716 146.789 42.3041 57.8771 42.2962 37.8719C42.2904 23.2047 42.2941 8.65718 42.2956 2.68369Z" fill="#63FEFD"/>
<path d="M162.327 11.1986C163.439 25.2764 167.662 46.0966 175.664 16.7556M53.4102 47.8748C54.1511 84.9215 58.5226 140.121 70.0812 64.5458M189.001 116.782C187.519 132.712 188.112 156.57 202.338 124.561C202.338 154.569 205.894 203.249 220.12 157.903" stroke="#45A7CA"/>
<path d="M168.996 205.694C134.542 209.028 154.918 217.178 168.996 217.919L151.213 220.142C142.322 222.365 143.433 225.699 153.436 229.033C161.438 231.7 187.889 230.144 200.115 229.033C233.012 220.142 204.931 215.696 186.778 214.585C201.004 207.472 180.851 205.694 168.996 205.694Z" fill="#8BFFFE"/>
<path d="M165.662 152.346C166.773 185.688 171.441 235.924 181.221 170.129C181.962 189.023 185.667 215.474 194.558 170.129M168.996 217.919C154.918 217.178 134.542 209.028 168.996 205.694C180.851 205.694 201.004 207.472 186.778 214.585C204.931 215.696 233.012 220.142 200.115 229.033C187.889 230.144 161.438 231.7 153.436 229.033C143.433 225.699 142.322 222.365 151.213 220.142L168.996 217.919Z" stroke="#45A7CA"/>
<path d="M112.378 16.7971C132.001 15.2876 118.745 7.16498 107.261 6.79452C80.1473 5.91984 35.4643 19.0199 46.1338 32.3567C59.4706 49.0277 83.4814 19.0199 112.378 16.7971Z" fill="#E5FFFF" fill-opacity="0.45"/>
<path d="M180.14 212.471C184.602 212.986 181.96 210.682 179.4 210.112C173.355 208.767 162.801 209.66 164.65 212.968C166.961 217.104 173.569 211.711 180.14 212.471Z" fill="#E5FFFF" fill-opacity="0.45"/>
<path d="M197.699 223.135C203.776 223.747 200.278 220.147 196.804 219.352C188.604 217.473 168.855 218.209 171.219 223.476C174.174 230.06 188.75 222.233 197.699 223.135Z" fill="#E5FFFF" fill-opacity="0.45"/>
</svg>
