<svg width="94" height="87" viewBox="0 0 94 87" fill="none" xmlns="http://www.w3.org/2000/svg">
<path d="M3.47806 67L23.9781 61.5H65.4781C71.4781 61.8333 84.9781 63.1 90.9781 65.5C96.9781 67.9 90.4781 69.5 86.4781 70C84.1447 70.5 80.5781 71.8 84.9781 73C89.3781 74.2 87.4781 75.5 85.9781 76C85.5781 76.4 78.8114 77.5 75.4781 78C74.1447 78.5 72.2781 79.7 75.4781 80.5C78.6781 81.3 77.8114 82.5 76.9781 83C71.3781 87 49.9781 87 39.9781 86.5C37.6447 86.1667 33.7781 85.2 36.9781 84C40.1781 82.8 36.6447 82.5 34.4781 82.5C27.8114 82.5 13.0781 82 7.47806 80C1.87806 78 5.81139 76.1667 8.47806 75.5C10.3114 75.1667 12.0781 74 4.47806 72C-3.12194 70 0.644727 67.8333 3.47806 67Z" fill="#70FC63"/>
<path d="M70.4781 44C72.0781 36.4 66.1447 31.8333 62.9781 30.5L50.9781 27.5C41.4781 26.5 39.9781 27.5 37.9781 30.5L22.478 65C17.678 66.6 23.1447 66.6667 26.478 66.5C30.3114 66.1667 36.878 66 32.478 68C28.078 70 29.3114 70.8334 30.478 71C30.878 71.8 40.6447 72.6667 45.478 73C46.478 73.1667 47.978 73 45.978 71C43.978 69 45.8114 69.1667 46.978 69.5L56.978 71C58.478 71.1667 60.9781 71.2 58.9781 70C56.9781 68.8 58.8114 68.5 59.9781 68.5H63.4781L70.4781 44Z" fill="#8CF982"/>
<path d="M61 36.2369L39 29C42 25 54.7504 27.6985 63 30.2369C69.5 32.2369 72.5 38.7369 71.5 43.2369L63.5 68.5001H59.5C58.8333 68.6667 57.8219 68.9369 59.0219 69.7369C60.5219 70.7369 60 71.5001 56.5 71.0001C58.3333 64.5001 62.8 46.8369 64 43.2369C65.9222 37.4703 62.5 37.0702 61 36.2369Z" fill="#70F963"/>
<path d="M39.116 36C38.4929 37.4439 36.1607 41.7755 38.4929 39.8503C39.659 38.8878 43.2461 36.1618 42.2315 37.9252C41.4007 39.369 39.9883 42.2568 40.9853 42.2568C41.9823 42.2568 44.7239 40.3316 45.9701 39.369C47.0726 38.5175 49.3348 38.4065 47.8394 42.2568C47.6317 43.059 48.0886 43.8932 51.5779 40.8129C55.0673 37.7327 54.6934 39.8503 54.0703 41.2942" stroke="#4AFD3A" stroke-width="0.5"/>
<path d="M56.9781 33.5212L50.4781 31.0255L63.3461 2.28767C64.5025 -0.237492 67.0295 -0.415816 68.4781 0.521175C71.1632 2.25798 71.7908 3.08592 71.3887 4.68247L59.9781 32.5212L56.9781 33.5212Z" fill="#E8CB9C"/>
<path d="M44.0319 51.6055C42.2981 50.9982 41.0799 53.0869 40.6876 54.2071L42.8548 54.9661L45.293 55.82C45.595 54.6682 45.7656 52.2127 44.0319 51.6055Z" fill="#EC778C"/>
<path d="M30.4781 57.3063L37.7069 54.0338M36.167 59.2988L32.2889 52.1361M46.9177 57.2597L50.254 64.2327M52.0648 59.0625L45.1069 62.4299M39.0622 53.6378L40.6876 54.2071M46.9184 56.3893L45.293 55.82M40.6876 54.2071C41.0799 53.0869 42.2981 50.9982 44.0319 51.6055C45.7656 52.2127 45.595 54.6682 45.293 55.82M40.6876 54.2071L42.8548 54.9661M45.293 55.82L42.8548 54.9661M42.8548 54.9661L43.4886 53.1565" stroke="black"/>
<path d="M69.6036 4.5122C70.1779 2.63902 69.5762 1.26016 68.978 1C72.1363 1.93659 71.757 4.64228 71.3981 5.68293L59.9781 32.5L58.4781 33C61.9473 24.2846 69.0294 6.38537 69.6036 4.5122Z" fill="#E0BA7B"/>
</svg>
