<svg width="94" height="87" viewBox="0 0 94 87" fill="none" xmlns="http://www.w3.org/2000/svg">
<path d="M4 67L24.5 61.5H66C72 61.8333 85.5 63.1 91.5 65.5C97.5 67.9 91 69.5 87 70C84.6667 70.5 81.1 71.8 85.5 73C89.9 74.2 88 75.5 86.5 76C86.1 76.4 79.3333 77.5 76 78C74.6667 78.5 72.8 79.7 76 80.5C79.2 81.3 78.3333 82.5 77.5 83C71.9 87 50.5 87 40.5 86.5C38.1667 86.1667 34.3 85.2 37.5 84C40.7 82.8 37.1667 82.5 35 82.5C28.3333 82.5 13.6 82 8 80C2.4 78 6.33333 76.1667 9 75.5C10.8333 75.1667 12.6 74 5 72C-2.6 70 1.16667 67.8333 4 67Z" fill="#F4DA75"/>
<path d="M71 44C72.6 36.4 66.6667 31.8333 63.5 30.5L51.5 27.5C42 26.5 40.5 27.5 38.5 30.5L23 65C18.2 66.6 23.6667 66.6667 27 66.5C30.8333 66.1667 37.4 66 33 68C28.6 70 29.8333 70.8334 31 71C31.4 71.8 41.1666 72.6667 46 73C47 73.1667 48.5 73 46.5 71C44.5 69 46.3333 69.1667 47.5 69.5L57.5 71C59 71.1667 61.5 71.2 59.5 70C57.5 68.8 59.3333 68.5 60.5 68.5H64L71 44Z" fill="#F9E07F"/>
<path d="M39.6379 36C39.0148 37.4439 36.6827 41.7755 39.0148 39.8503C40.1809 38.8878 43.7681 36.1618 42.7534 37.9252C41.9226 39.369 40.5103 42.2568 41.5072 42.2568C42.5042 42.2568 45.2458 40.3316 46.492 39.369C47.5945 38.5175 49.8567 38.4065 48.3613 42.2568C48.1536 43.059 48.6105 43.8932 52.0999 40.8129C55.5892 37.7327 55.2154 39.8503 54.5923 41.2942" stroke="#EBD26F" stroke-width="0.5"/>
<path d="M57.5 33.5212L51 31.0255L63.8681 2.28767C65.0245 -0.237492 67.5514 -0.415816 69 0.521175C71.6851 2.25798 72.3127 3.08592 71.9106 4.68247L60.5 32.5212L57.5 33.5212Z" fill="#E8CB9C"/>
<path d="M44.5538 51.6055C42.82 50.9982 41.6019 53.0869 41.2095 54.2071L43.3768 54.9661L45.8149 55.82C46.1169 54.6682 46.2876 52.2127 44.5538 51.6055Z" fill="#EC778C"/>
<path d="M31 57.3063L38.2289 54.0338M36.689 59.2988L32.8108 52.1361M47.4396 57.2597L50.776 64.2327M52.5868 59.0625L45.6288 62.4299M39.5841 53.6378L41.2095 54.2071M47.4403 56.3893L45.8149 55.82M41.2095 54.2071C41.6019 53.0869 42.82 50.9982 44.5538 51.6055C46.2876 52.2127 46.1169 54.6682 45.8149 55.82M41.2095 54.2071L43.3768 54.9661M45.8149 55.82L43.3768 54.9661M43.3768 54.9661L44.0106 53.1565" stroke="black"/>
<path d="M70.1256 4.5122C70.6998 2.63902 70.0981 1.26016 69.5 1C72.6582 1.93659 72.2789 4.64228 71.92 5.68293L60.5 32.5L59 33C62.4693 24.2846 69.5514 6.38537 70.1256 4.5122Z" fill="#E0BA7B"/>
<path d="M62 36.2733L40 29C41.5 25.5 55.7504 27.7349 64 30.2733C70.5 32.2734 73.5 38.7734 72.5 43.2733L64.5 68.5365H60.5C59.8333 68.7031 58.8219 68.9733 60.0219 69.7733C61.5219 70.7733 61 71.5365 57.5 71.0365C59.3333 64.5365 63.8 46.8733 65 43.2733C66.9222 37.5067 63.5 37.1067 62 36.2733Z" fill="#FCDE6C"/>
</svg>
